<?xml version="1.0" encoding="UTF-8"?>
<svg id="Calque_3" xmlns="http://www.w3.org/2000/svg" version="1.1" xmlns:xlink="http://www.w3.org/1999/xlink" viewBox="0 0 152.3 61.2">
  <!-- Generator: Adobe Illustrator 29.5.1, SVG Export Plug-In . SVG Version: 2.1.0 Build 141)  -->
  <defs>
    <style>
      .st0 {
        fill: #fff;
      }

      .st1 {
        fill: url(#Dégradé_sans_nom_221);
      }

      .st2 {
        fill: url(#Dégradé_sans_nom_224);
      }

      .st3 {
        fill: url(#Dégradé_sans_nom_227);
      }

      .st4 {
        fill: #003f33;
      }

      .st5 {
        fill: url(#Dégradé_sans_nom_22);
      }

      .st6 {
        fill: url(#Dégradé_sans_nom_222);
      }

      .st7 {
        fill: url(#Dégradé_sans_nom_225);
      }

      .st8 {
        fill: url(#Dégradé_sans_nom_223);
      }

      .st9 {
        fill: url(#Dégradé_sans_nom_226);
      }
    </style>
    <linearGradient id="Dégradé_sans_nom_22" data-name="Dégradé sans nom 22" x1="11.4" y1="-1.5" x2="11.4" y2="66.4" gradientUnits="userSpaceOnUse">
      <stop offset="0" stop-color="#0f704b"/>
      <stop offset=".2" stop-color="#208a31"/>
      <stop offset=".5" stop-color="#4c9f50"/>
      <stop offset="1" stop-color="#00654a"/>
    </linearGradient>
    <linearGradient id="Dégradé_sans_nom_221" data-name="Dégradé sans nom 22" x1="25.4" y1="-1.5" x2="25.4" y2="66.4" xlink:href="#Dégradé_sans_nom_22"/>
    <linearGradient id="Dégradé_sans_nom_222" data-name="Dégradé sans nom 22" x1="40.6" y1="-1.5" x2="40.6" y2="66.4" xlink:href="#Dégradé_sans_nom_22"/>
    <linearGradient id="Dégradé_sans_nom_223" data-name="Dégradé sans nom 22" x1="56.8" y1="-1.5" x2="56.8" y2="66.4" xlink:href="#Dégradé_sans_nom_22"/>
    <linearGradient id="Dégradé_sans_nom_224" data-name="Dégradé sans nom 22" x1="74.5" y1="-1.5" x2="74.5" y2="66.4" xlink:href="#Dégradé_sans_nom_22"/>
    <linearGradient id="Dégradé_sans_nom_225" data-name="Dégradé sans nom 22" x1="96.6" y1="-1.5" x2="96.6" y2="66.4" xlink:href="#Dégradé_sans_nom_22"/>
    <linearGradient id="Dégradé_sans_nom_226" data-name="Dégradé sans nom 22" x1="110" y1="-1.5" x2="110" y2="66.4" xlink:href="#Dégradé_sans_nom_22"/>
    <linearGradient id="Dégradé_sans_nom_227" data-name="Dégradé sans nom 22" x1="132.6" y1="-1.5" x2="132.6" y2="66.4" xlink:href="#Dégradé_sans_nom_22"/>
  </defs>
  <path class="st0" d="M151.7,31.1c.2,3.4,0,9.7-.2,12.4h0c0,2.3-.9,5.4-5.4,7.5h-.1c-1.2.7-3.6,1.9-6.2,1.4-.3.1-.6.2-.8.3-.6.2-1,.3-1.3.3-.2,0-.3,0-.5.2-6.3,2.2-9.6,3.1-12.2,1.4-.3.1-.6.2-.8.2-.4.2-.9.4-1.3.5-.8.3-1.7.5-2.7.6-.2.2-.5.5-.8.7l-.3.2c-1.9,1.4-4.3,3.2-7,3.2s-1.8-.2-2.7-.6c-1.1-.6-1.9-1.4-2.5-2.2-1,.3-2.1.5-3.2.4-1.6,0-3-.8-4.2-2-.2-.2-.4-.5-.5-.7-.2.2-.5.4-.7.6,0,0-.2.1-.2.2-.5.3-2.7,1.7-5.3,1.7s-.7,0-1.1,0c-.1,0-.3,0-.4,0-2.2-.6-3.4-2-4-3.5-.3.4-.6.9-.9,1.3-2,2.6-5.4,3.5-10.8,4.7-.7.2-1.6.3-2,.5-1.2.5-3.1,1.2-5.2,1.2s-2.6-.2-3.9-.9c-.8-.4-1.4-.8-2-1.4-.4.1-.9.2-1.2.2-.1,0-.3,0-.4,0-.2,0-.4,0-.6.1-.5.2-1.5.5-2.7.5-2.1,0-4.5-1.1-5.8-3.3-.3,0-.6-.2-.9-.3-.3-.1-.5-.3-.8-.5-1,.8-2.1,1.4-3.5,1.9-1.1.5-2.1.7-3.2.7s-.7,0-1,0c-1.2-.1-2.6-.6-3.8-1.8-2.1.9-4.4.9-6.1.4,0,0,0,0,0,0-.8.2-1.6.4-2.1.5-1.2.4-2.3.7-3.3.7-1.6,0-3-.5-4.2-1.5-.1-.1-.2-.2-.3-.3-.7-.7-1.2-1.5-1.5-2.2-.3,0-.6,0-1,0-1,0-1.9-.4-2.8-.9-.7.2-1.5.4-2.3.4s-1.2,0-1.9-.2c-2.5-.5-4.9-2.1-6.4-3-.2-.1-.4-.2-.5-.3,0,0,0,0-.1,0-1.9-1.2-6.2-4.5-6.2-9.5s0-3.4,1.4-4.9c.4-.8,1-1.7,2.1-2.7,1-.9,1.9-1.4,2.8-1.7,0-1.1-.1-2.2-.1-3.3v-1.9c0,0,0-.2,0-.3,0-.5,0-.9,0-1.4,0-1.4.2-2.8.1-3.9,0,0,0-.2,0-.3,0-.3,0-.7,0-1.2,0-.9-.2-2-.1-3.2,0-2.9,1.7-5.1,4.7-6.6h.1c0-.1.2-.2.3-.2.1,0,.2-.1.4-.2,1.6-.8,3.5-1.7,5.8-1.4,0,0,.2,0,.3,0,.2,0,.9.2,1.7.6,2.3-1.1,4.2-1.1,5.6-.7,0,0,0,0,.2,0h0c1.7-1.2,4.9-3.4,8.4-1.7.6.3,1.3.8,1.9,1.5.6-.4,1.6-1,3-1.2.3-.6.7-1.2,1.3-1.8.4-.4.8-.7,1.3-.9.1,0,.3-.2.5-.3,1.9-1.1,4.2-2.4,6.9-1.6,1,.3,1.9.9,2.6,1.7,0,0,0,0,.2-.1,0,0,.2-.1.3-.2h.1c.6-.6,1.4-1.3,2.7-1.8.6-.3,1.3-.4,2-.4h1.3c.9,0,1.5.2,2,.3.8,0,2,.2,3.1.7,1.7.8,2.7,2,3.3,3.2.5-.2,1.2-.4,1.9-.6,1.1-.2,2.2,0,3.1.2.4-.1.7-.2,1-.3,1.2-.3,2.5-.4,3.7-.5,1,0,2.2-.2,2.8-.4,0,0,.2,0,.3,0,.9-.2,3.4-.9,5.8.7,1.3.9,2.2,2.2,2.7,3.8.4-.5.9-.9,1.4-1.3,0,0,.1,0,.2-.1,1.9-1.3,4-2.2,6.6-2.5,2.2-.4,3.9,0,5.2.6,1,.2,2.7.6,4.4,2,1-.4,2.4-.7,4-1.1.3,0,.5-.1.7-.2.3,0,.7-.1,1-.1h.2c.7-.1,1.7-.3,2.9-.2,1.9,0,3.6.9,4.9,2.2.2,0,.5,0,.8,0,0,0,0,0,0,0,.6-.2,1.7-.6,3-.6.1,0,.3,0,.4,0,.9-.2,2.3-.4,3.9-.1.2,0,.4,0,.6,0,1.3,0,4.9.2,7.1,3h0c.2,0,.3,0,.5,0,1.8,0,3.2.4,4.3.9.9-.7,1.9-1.2,3-1.3,2.9-.5,5,1.1,6.2,2h.2c3.6,2.8,4.4,6.2,2.4,10.2,0,0,0,0,0,.1-.8,1.5-1.5,3.2-2.2,5.1,1.7,1.4,2.7,3.4,2.7,5.9Z"/>
  <g>
    <path class="st4" d="M33.2,47.1c-.1-.9,0-1.9,0-2.8l-.4.3c.2-1.6-.1-3.3-.1-4.9v-6.2c0-2.6,0-5.9,0-8,.2-3,.2-6.1.2-9.2v-2.3c0-.1,0-.2,0-.3,0,0,0,0,0-.1.7-3.8-2.5-3.6-2.5-3.6l-1.4,2.3.2,1.3c-.9.5-1.5,1-1.5,2.2-.1,2.2-.1,4.4-.1,6.6v17.9c0,.5.2,1.2,0,1.7-.4.7-1.7.8-2.1.2-.2-.4-.2-1.4-.2-1.9,0-1,0-2,0-3v-20.6c0-.3.1-.8.1-1.2.5-3.6-2.5-3.3-2.5-3.3l-1.4,2.3.2.9c-.6.3-1.2.7-1.4,1.1-.2.5-.2,1.6-.2,2.1v2.8c0,2.7-.2,3.1-.2,5.7v6.6c0,1.7.1,3.4.1,4.6v6c-.7-.1-1.3.2-1.5,1.6-.3,2.4,1.4,3.7,2.6,4.3.3.2.6.4.9.4,1.2.2,2.7-.2,3.6-.5,0,.2,0,.4,0,.6.6,3.8,2.2,4,2.8,4,.6,0,1.4-.4,2-.5.6,0,2.8-.3,3.1-1.2.2-.8-.4-1.5-.4-2.2,0-1.1,0-2.4,0-3.5Z"/>
    <path class="st4" d="M49,38.3V15.9c0-2,.1-4.8-.2-6.4.5-3.6-2.5-3.3-2.5-3.3l-1.4,2.3.2,1.2s0,0,0,0c-.5.5-.5.9-.5,3.1s.3,4.9.3,6.7c0,3.1.5,6.2.3,9.5-.1.9-.2,3.1-1,2.3-.4-.5-.6-2.5-.6-3.2-.3-2.4-.6-5-1.1-7.3-.5-2.1-.4-4.9-1-7-.1-3.2-2.6-2.9-2.6-2.9l-1.4,2.9v.8c-1.5.9-2.4,1.9-2.4,4.8h.1l-.3.2v9.2c0,4.8.3,9.6.3,14.4v5.6c0,.3,0,.6,0,1l-.3-.2-.8,1.8,1.5,2.3c1.1.3,3.3.2,3.3-1.5.2-1.7,0-4.2,0-6-.2-1.9-.2-4-.2-6v-2.1c0-1,.9-1.7,1.2-1.4.3,0,.3.8.3,1.2,1,3.8,1.5,8.4,2.4,12.6l-.9.4s1.3,4,3,4c.4,0,.9,0,1.5-.3,1.5-.5,3.3-.9,3.1-4.1-.3-3.9-.3-8-.3-12.1Z"/>
    <path class="st4" d="M65.3,33.7c0-1-.1-3.5-.7-4.2-.6-1.5-1.7-2.3-1.7-2.3l-1.5,2.7c-.9.4-1.7.6-2.5.8-.6.2-1.7.3-2.1,1-.3.5-.3,1.5-.3,2.4v2.2c.1,1.2.2,2.1,1.2,1.8.4,0,.8-.7,1.2,0,.2,0,.2,1,.2,2s-.5,2.1-1.2,2.4c-.3.2-.9,0-1.2,0-.6,0-.6-.3-.8-1.1-.2-1.3-.6-1.8-.6-3.7s-.3-4.3-.3-6.2v-2.6c0-2.1.2-3.7.4-6.2,0-1.5,1-1.9,1.9-2.1,1-.2,1.5-.5,1.5.9v1.2c-.7.4-1.3.9-1.6,1.7-.4,1.3,1.2,2.7,1.9,3.2,0,0,.2.1.2.2h0s0,0,0,0c0,0,0,0,0,0,.2,0,.4,0,.6,0,.7-.1,1.8-.7,2.4-1.3.6-.6.6-2.1.6-3.3v-7.7c0-1.5.2-3.1,0-4.6,0-.5,0-.9-.2-1.2.4-4-3-3.7-3-3.7l-1,1.7h-1.1c-.5.2-1,.7-1.5,1.1-.7.5-1.5.9-2.1,1.6-.6.6-1.1,1.3-1.7,1.9-1.2,1.2-1.2,2.7-1.2,4.5v16.4c0,4.3.2,8.7.4,13,0,1.6,0,3.1.7,4.4.3.5.7,1,1.1,1.4.4.4,1.1,1.1,1.5,1.3.4.1.9-.2,1.4-.6.2.5,1.2,3.5,2.3,3.6.2,0,.3,0,.5,0,.7,0,1.4-.4,1.9-.4.7-.2,1.7-.2,2.2-.4s1.2-.3,1.2-1.4v-4.7c0-2.4-.4-5.1-.4-7.5,0-1.5-.3-3-.3-4.4h0c0-.6.2-1,.4-1.4.5-1,1.2-1.1,1.2-2.5ZM57.2,52.1h.4c.2.2.4.4.4.7-.7,0-1.3,0-1.5,0,.3-.2.5-.4.7-.6Z"/>
    <path class="st4" d="M84.3,45.4c-.5-.9-1.9-2.4-1.9-2.4,0,0-.6,2.5-.7,2.9,0,0,0,.1,0,.2-1.8.7-7.1,2.3-8,2.3-1.5-.1-1.2-6.5-1.2-7.7v-7.5c-.2-4.3,0-8.6,0-12.9s.2-5.1,0-7.5c0-.4-.1-.6-.3-.9-.4-1.8-2.2-2.8-2.2-2.8v1.4c0,0,0,.8,0,.8-.4.2-.9.4-1.3.6-.4.1-1,.2-1.4.6-.7.7-.5,2.5-.5,3.6v30.8c0,1.4,0,2.9.1,4.3-.7.1-1.3.7-1.3,2,0,3.5,2.8,4.2,2.8,4.2,1.5.8,3.3.1,4.8-.5,1.6-.6,9-1.6,10.2-3.2.8-1.1,1.2-1.7,1.2-3.4h.5c-.1-1.2-.2-3.3-.6-4.4,0-.3-.2-.4-.3-.6Z"/>
    <path class="st4" d="M99.3,28.6h0c0,0,0-.1,0-.2v.2Z"/>
    <path class="st4" d="M103.9,28.4c.2-3,.2-6,.2-9v-2.9c0-.8,0-2.1-.3-3.1,0,0,0,0,0,0-.3-2.2-2.7-4-2.7-4l-.3,1.6c0,0-.2,0-.3,0-.9-.4-1.6-.6-2.6-.4-1.4.2-2.9.6-4.3,1.6-.9.7-1.5,1.5-1.5,3,.2,1.9.4,4,.4,6,0,4.9.3,9.9.5,14.8.2,4.2.1,8.5.3,12.8-.3.2-1.2.7-1.2,1.8s1.1,2.3,1.7,2.9c0,.2.2.3.4.4.6,0,1.8-.4,2.4-.8.8-.6,1.2-1.1,1.2-2.4v-9.3c.2-1.2,1.3-1.4,2-1.7.9-.4,2.3-.7,3-1.6.5-.8.9-2.2.9-3.2.2-2.2.2-4.4.2-6.5ZM99.4,28.6h0c0,1.1.2,2.9-.9,3.3-.5.2-1.2.7-1.4,0v-5.8c0-1,0-1.5.8-1.9.9-.3,1.6-.5,1.6.7v3.8Z"/>
    <path class="st4" d="M118.3,38c-.4-5-.6-7.9-1.1-13.7-.2-2.4-.2-5.6-.2-7.9s0-1.6,0-2.4c0,0,0-.1,0-.2.1-2.2-2.6-4-2.6-4l-1.9,2.1c-.8.2-3.4.7-4.2,1.1-.9.5-1.2,1.1-1.4,2.6-.3,1.8-.5,4.5-.5,6.4-.5,5.8-1,11.6-1.4,17.4-.3,3.8-.1,6.5-.3,10.6l-1.4,1.1s1.3,3.2,2.3,3.1c.7,0,2.1-.4,2.7-.8,1-.6,1-1.2,1-2.7s-.1-3.2.4-3.8c.5-.7.3-.5,1-.9.4-.2,1.3-.7,1.6-.2.2.4.2,2.7.2,3.2.1.9.2,1.9.2,2.8-.6,0-1.1.2-1.2,1-.2,2.4,1.9,3.8,1.9,3.8.8.4,4.1-2.3,4.1-2.3.9-.7.7-1.8.7-3.1v-13.1ZM112.1,34.6v2.2c0,.5-.9,1.1-1.3,1.1-.7.2-.7-.8-.7-1.6v-4.4c.1-1.5.2-3.4.4-4.8.2-.9,1.2-.8,1.4,0,.2,1.1.2,2.2.2,3.2v4.3Z"/>
    <path class="st4" d="M147.8,19.7c.7-1.4.9-2-.7-3.2-1.1-.8-2.2-1.7-3-.6-.6.9-.9,2.3-1.3,3.4-.6,1.7-1,3.5-1.6,5.3-.3,1-.5,2.8-1.5,3.5-.6.6-.6-.6-.6-1.2v-2c-.3-2.7,0-4.5,0-7.2s0-.2,0-.4c0,0,0,0,0,0,0-3.5-3.1-3.5-3.1-3.5l.2,2.2c-1,.1-1.7.5-1.7,2.1v5.7c.2,3.2.2,6.3.2,9.5,0,2.8-.2,4.3,0,6.5h-1.1c0,0,.4,2.7,2,3,.6.2,1.4,0,2.1-.2,0,0,.2,0,.3,0l-.5,2.1c-.9.3-2.2.6-2.2.6-.7.1-1.8.4-2-.6-.3-1.3.2-2.9-.3-4.1-.3-.8-1.1-1.2-1.8-1.6-.7-.3-1.5-.5-2.1-.9,1.2-1.5,3-2.6,3-4.6.2-3,.3-6,.4-8.9v-4.8c0-1.1.2-3.6,0-4.7,0,0,0,0,0,0,0,0,0,0,0,0,0,0,0,0,0,0-.5-1.8-2.9-3.6-2.9-3.6l-.6,1.9c-.5,0-.9,0-1.3-.1-1-.2-2.2.3-3.2.3s-1.8.6-2.8.6-1.6.5-1.6,1.9c.2,1.2.2,1.8.2,3,.2,3.2,0,6.6,0,9.7v20.5c-.7.4-1.5.9-1.5.9,0,0,1.2,3,2.4,2.9.5,0,1.1,0,1.4-.2.5-.2,1-.4,1.4-.6.3,0,.9-.2,1.2-.4.7-.6.5-2.3.5-3.1v-3.1c0-1.6-.5-4.3,0-4.8.5-.4,1.9,1.6,1.9,3.1v5.4c0,1.5,1.1,2.5,2.1,3.2,0,0,.5.5,7.3-1.9,1.1-.4,1.2-.3,2.2-.6,1.1-.3,1.4-1,1.4-2.3l-.4.2c0-.4,0-1.5,0-2.2.1-1.3-.9-2.5-1.5-3,.5-.2.8-.4.8-1.2v-3.2c.1-1.5,1.1-1.8,2.3-1.8.4,1.4.4,3,.4,4.5v5.2l-1.6.5s.7,2,1.8,2.7c.2.2.5.3.8.2,0,0,.2,0,.3,0,.7-.2,1.5-.6,2-.9,1.1-.5,2.3-1.2,2.3-2.5v-.2c.2-2.9.4-9.1.2-12,0-1.4-.6-2.1-1.9-2.3-.4,0-1.3.1-1.7-.2-.5-.4-.2-1,0-1.5.9-3.5,2.2-7,3.7-9.8ZM127.3,29.3c-.2.8.2,2.2-.2,2.8-.3.6-1.8,1.2-2.1.7-.3-.6,0-2,0-2.7v-4.7c0-.7-.2-2,.4-2.4.3-.2.9-.3,1.2-.3h0c.7,0,.7.1.7.7v5.9Z"/>
    <path class="st4" d="M140.4,47.2s0,0,0,0h.1s-.1,0-.1,0Z"/>
    <path class="st4" d="M16.3,12.3l-1.4,2.3.2,1c0,0-.1,0-.2,0-.8.4-1.8.8-1.8,2,0,1.4.2,2.8.2,4.1.1,1.9,0,4-.2,5.9h0v1.9c0,2.8.4,5.7.3,8.3,0,.5,0,1.4-.2,1.8-.3.5-.8.3-1.2,0s-.6-.3-1.3-1c-1-1-1.4-.6-2.2.1-.7.6-.8,1.2-1.2,2-.3.5-.3-.7-.3,1.4s2.3,4,3.7,4.9c1,.6,3.4,2.3,5.3,2.7.8.2,1.6,0,1.9-.6.3-.5.3-1.4.3-2.1v-7.8c.2-2.4,0-4.9,0-7.3h-.1c0,0,0-2.5,0-2.5.2-1.5.3-2.9.3-4.3v-3.6c0-1.5,0-3.2.2-4.6,0-.3.1-.8.2-1.2.7-3.8-2.5-3.5-2.5-3.5Z"/>
    <path class="st4" d="M74.8,43c.3.5.7.7,1.3.8,1.9.4,4.8-.2,6.6-1.2.9-.5,1.6-1,1.6-2.2s0-2.2-.3-3.3c0-.4-.2-.8-.3-1.1-.3-1.3-2.1-2.7-2.1-2.7l-2.3,3.2c-.9,0-.9-.7-1-1.9v-2.5c0-1.1,0-2.1,1-2.3.9-.2,2.3-.4,3.1-.8,1.8-.6,1.3-3.9,1.2-5.6,0-.4-.2-.6-.3-.8-.5-1.3-2-2.4-2-2.4l-1.5,2.8h0c-.2.2-.4.2-.6.1-1-.2-.8-1-.8-1.9s0-1.4,1.1-1.6c1.7-.4,4.3-.4,4.5-2.9,0-1.2,0-4.4-.3-5.6,0-.4-.2-.7-.3-.9-.6-1.4-1.6-2.3-1.6-2.3l-1.7,1.7-.2.9c-1.7.2-3.5.3-4.9.6-1,.2-1,1.4-1,2.6s.2,2.9.3,4.3h0c.2,6.5,0,13.2.4,19.6v.9c-.6.3-1.3.8-1.5,1.6-.3.9.9,2.2,1.8,2.9Z"/>
  </g>
  <g>
    <path class="st5" d="M16.7,29.8c0,2.4.2,4.9,0,7.3v7.8c0,.7,0,1.6-.3,2.1-.3.7-1.1.8-1.9.6-1.9-.4-4.3-2.1-5.3-2.7-1.4-.9-3.7-2.8-3.7-4.9s0-.9.3-1.4c.4-.8.5-1.4,1.2-2,.8-.7,1.2-1.1,2.2-.1.7.7.9.7,1.3,1,.4.3.9.5,1.2,0,.2-.4.2-1.3.2-1.8.1-2.6-.3-5.5-.3-8.3s0-1.3,0-1.9c.1-1.9.3-4,.2-5.9,0-1.3-.3-2.7-.2-4.1,0-1.2,1-1.6,1.8-2,.7-.3,2.5-1.3,3.2-1.2,1,.2.6,1.6.5,2.5-.1,1.4-.2,3.1-.2,4.6v3.6c0,1.4-.1,2.8-.3,4.3v2.6h0Z"/>
    <path class="st1" d="M31.8,42.1c0,.9-.2,1.9-.1,2.8,0,1.1,0,2.4.1,3.5,0,.7.6,1.4.4,2.2-.3.9-2.5,1.1-3.1,1.2-.7.2-1.8.9-2.5.3-.6-.6-.8-1.7-.8-2.6s0-1.1-.2-1.5c-.3-.6-.6-.4-1.1-.3-.9.2-2.5.7-3.8.5-.5,0-1-.4-1.4-.8-.4-.6-.6-1.3-.6-2v-9.4c0-1.2-.1-2.9-.1-4.6v-6.6c0-2.6.2-3,.2-5.7v-2.8c0-.5,0-1.6.2-2.1.4-.7,2.1-1.4,2.7-1.7.8-.4,2-.8,2.3.2.2.5.1,1.3,0,1.8v20.6c0,1-.1,2,0,3,0,.5,0,1.5.2,1.9.4.6,1.7.5,2.1-.2.2-.5,0-1.2,0-1.7v-17.9c0-2.2,0-4.4.1-6.6,0-1.2.7-1.7,1.6-2.2.6-.4,2.4-1.7,3-1.4.4.2.5,1,.5,1.8v2.3c0,3.1,0,6.2-.2,9.2,0,2.1-.1,5.4,0,8v6.2c0,1.6.3,3.3.1,4.9,0,0,.4-.3.4-.3Z"/>
    <path class="st6" d="M33.6,17.2c0-2.9,1-3.9,2.6-4.8.6-.4,1.3-.6,1.9-1,.8-.5,1.6-1,1.9.2.6,2.1.5,4.9,1,7,.5,2.3.8,4.9,1.1,7.3,0,.7.2,2.7.6,3.2.8.8.9-1.4,1-2.3.2-3.3-.2-6.4-.3-9.5,0-1.8-.3-4.5-.3-6.7s0-2.6.5-3.1c1.1-.6,3.1-1.9,3.4-1.3.7,1,.5,4.9.5,7.5v22.4c0,4.1,0,8.2.3,12.1.2,3.2-1.6,3.6-3.1,4.1-.6.3-1.1.4-1.5.3-.7,0-1.2-.7-1.7-2.6-1.1-4.7-1.7-10-2.8-14.4,0-.4,0-1.1-.3-1.2-.3-.3-1.2.4-1.2,1.4v2.1c0,2,0,4.1.2,6,0,1.8.2,4.3,0,6,0,1.7-2.2,1.8-3.3,1.5-.3-1.5-.4-3.2-.4-4.8v-5.6c0-4.8-.3-9.6-.3-14.4v-9.2l.3-.2h-.1Z"/>
    <path class="st8" d="M62.3,35.4c0,1.4.2,2.9.3,4.4,0,2.4.3,5.1.4,7.5v4.7c0,1.1-.7,1.2-1.2,1.4s-1.5.2-2.2.4c-.5,0-1.2.4-1.9.4s-1.2-.4-1.3-1.6c0-1,.5-2.2-.3-2.7h-.4c-.6.4-1.5,1.4-2.2,1.2-.4-.2-1.1-.9-1.5-1.3-.4-.4-.8-.9-1.1-1.4-.7-1.3-.6-2.8-.7-4.4-.2-4.3-.4-8.7-.4-13V14.6c0-1.8,0-3.3,1.2-4.5.6-.6,1.1-1.3,1.7-1.9.6-.7,1.4-1.1,2.1-1.6.5-.4,1-.9,1.5-1.1h1.3c.4,0,.9.3,1.4.3s1,0,1.4.2c.9.4,1.1,1.4,1.2,2.7.2,1.5,0,3.1,0,4.6v7.7c0,1.2,0,2.7-.6,3.3-.6.6-1.7,1.2-2.4,1.3-.4,0-.7,0-1-.4-.4-.6-.2-.9-.2-1.6v-4.3c0-1.4-.5-1.1-1.5-.9-.9.2-1.8.6-1.9,2.1-.2,2.5-.4,4.1-.4,6.2v2.6c0,1.9.3,4.3.3,6.2s.4,2.4.6,3.7c.2.8.2,1,.8,1.1.3,0,.9.2,1.2,0,.7-.3,1.2-1.4,1.2-2.4s0-2-.2-2c-.4-.6-.8,0-1.2.1-1,.3-1.1-.6-1.2-1.8v-2.2c0-.9,0-1.9.3-2.4.4-.7,1.5-.8,2.1-1,.8-.3,1.7-.5,2.6-.9.8-.3,1.9-.9,2.8-.6.8.3.8,3.3.9,4.4,0,1.4-.7,1.5-1.2,2.5-.2.4-.3.8-.4,1.3h.1Z"/>
    <path class="st2" d="M83.2,48.2c0,1.7-.4,2.3-1.2,3.4-1.2,1.6-8.6,2.6-10.2,3.2-1.5.6-3.3,1.3-4.8.5-1.1-.5-1.3-1.6-1.4-3.2-.2-2.3-.2-4.8-.3-7.3V14c0-1.1-.2-2.9.5-3.6.4-.4,1-.5,1.4-.6.5-.2,1.1-.6,1.7-.7.9,0,1.9,0,2.1,1.6.2,2.4,0,5,0,7.5,0,4.3-.2,8.6,0,12.9v7.5c0,1.2-.3,7.6,1.2,7.7,1,0,7.7-2.1,8.5-2.5s1.9-1.5,2.4,0c.4,1.1.5,3.2.6,4.4h-.5ZM72.6,15.7c.2,6.6,0,13.3.4,19.7v4.3c0,1.2.6,1.7,1.5,1.9,1.9.4,4.8-.2,6.6-1.2.9-.5,1.6-1,1.6-2.2s0-2.2-.3-3.3c-.2-1-.5-2-1.5-1.5-.8.4-2,.9-2.8.9-1.3.1-1.3-.5-1.4-1.9v-2.5c0-1.1,0-2.1,1-2.3.9-.2,2.3-.4,3.1-.8,1.8-.6,1.3-3.9,1.2-5.6-.2-1.5-1-.9-1.8-.7-.7.2-1.9.5-2.6.4-1-.2-.8-1-.8-1.9s0-1.4,1.1-1.6c1.7-.4,4.3-.4,4.5-2.9,0-1.2,0-4.4-.3-5.6-.2-1.4-.7-1.4-1.8-1.1-2.1.7-4.9.6-7,1.1-1,.2-1,1.4-1,2.6s.2,2.9.3,4.3h0Z"/>
    <path class="st7" d="M102.6,17.2c0,3,0,6-.2,9,0,2.1,0,4.3-.2,6.5,0,1-.4,2.4-.9,3.2-.7.9-2.1,1.2-3,1.6-.7.3-1.8.5-2,1.7v9.3c0,1.3-.4,1.8-1.2,2.4-.6.4-1.8.9-2.4.8-.8-.2-.7-2.6-.8-3.7-.3-4.7-.2-9.5-.4-14.2-.2-4.9-.4-9.9-.5-14.8,0-2-.2-4.1-.4-6,0-1.5.6-2.3,1.5-3,1.4-1,2.9-1.4,4.3-1.6,1-.2,1.7,0,2.6.4.8.2,1.8.3,2.6,1,.9.8.9,3.2,1,4.5v3.1-.2ZM97.9,26.4v-3.8c0-1.2-.7-1-1.6-.7-.9.4-.9.9-.8,1.9v5.8c.2.8.9.3,1.4.1,1.2-.4.9-2.4.9-3.5v.2h0Z"/>
    <path class="st9" d="M116.3,52c-.7.5-3.5,2.7-4.3,2.3s-.7-2.2-.7-3.3,0-2.9-.2-4.3c0-.5,0-2.8-.2-3.2-.3-.5-1.2,0-1.6.2-.7.4-.5.2-1,.9-.5.6-.4,2.8-.4,3.8,0,1.5,0,2.1-1,2.7-.6.4-2,.9-2.7.8-1,0-1-2-.9-3.2.2-4.7,0-7.5.3-11.6.4-5.8.9-11.6,1.4-17.4,0-1.9.2-4.6.5-6.4.2-1.5.5-2.1,1.4-2.6.8-.4,3.4-.9,4.2-1.1.5,0,1.6-.3,2.5-.2.6,0,1.2.3,1.5.8.6,1,.4,2.8.4,4,0,2.3,0,5.5.2,7.9.5,5.8.7,8.7,1.1,13.7v13.1c0,1.3.2,2.4-.7,3.1,0,0,.2,0,.2,0ZM110.6,32.4v-4.3c0-1,0-2.1-.2-3.2-.2-.8-1.2-.9-1.4,0-.2,1.4-.3,3.3-.4,4.8v4.4c0,.8,0,1.8.7,1.6.4,0,1.2-.6,1.3-1.1v-2.2Z"/>
    <path class="st3" d="M138.9,45c0,1.3-.3,2-1.4,2.3-1,.3-1.1.2-2.2.6-6.8,2.4-7.3,1.9-7.3,1.9-1-.7-2.1-1.7-2.1-3.2v-5.4c0-1.5-1.4-3.5-1.9-3.1-.5.5,0,3.2,0,4.8v3.1c0,.8.2,2.5-.5,3.1-.3.2-.9.3-1.2.4-.4.2-.9.4-1.4.6-.5.2-1.6.4-2,0s-.3-1.8-.3-2.6v-21.4c0-3.1.2-6.5,0-9.7,0-1.2,0-1.8-.2-3,0-1.4.6-1.9,1.6-1.9s1.8-.6,2.8-.6,2.2-.5,3.2-.3c1.7.3,4.1-.3,4.8,1.9.3,1,.1,3.7.1,4.8v4.8c-.1,2.9-.2,5.9-.4,8.9,0,2-1.8,3.1-3,4.6.6.4,1.4.6,2.1.9.7.4,1.5.8,1.8,1.6.5,1.2,0,2.8.3,4.1.2,1,1.3.7,2,.6,0,0,1.6-.4,2.5-.7.4,0,.6,0,1-.2.6,0,1-.2,1.2.5.1.4.1,2.3.1,2.8l.5-.2h-.1ZM125.1,20.5c-.3,0-.9.1-1.2.3-.6.4-.4,1.7-.4,2.4v4.7c0,.7-.3,2.1,0,2.7.3.5,1.8-.1,2.1-.7.4-.6,0-2,.2-2.8v-5.9c0-.6,0-.8-.7-.8h0ZM146,43.5c0,1.3-1.2,2-2.3,2.5-.8.4-2.9,1.6-3.2.5-.2-.6,0-1.9,0-2.6v-5.6c0-1.5,0-3.1-.4-4.5-1.2,0-2.2.3-2.3,1.8v3.2c0,1.1-.5,1.1-1.6,1.4-1.1.3-2.5.8-2.7-.8-.4-3.5-.3-4.8-.2-8.4,0-3.2,0-6.3-.2-9.5v-5.7c0-1.8.9-2,2.1-2.1,1.3,0,2.4,0,2.4,1.8,0,2.7-.3,4.5,0,7.2v2c0,.6,0,1.8.6,1.2,1-.7,1.2-2.5,1.5-3.5.6-1.8,1-3.6,1.6-5.3.4-1.1.7-2.5,1.3-3.4.8-1.1,1.9-.2,3,.6,1.6,1.2,1.4,1.8.7,3.2-1.5,2.8-2.8,6.3-3.7,9.8-.2.5-.5,1.1,0,1.5.4.3,1.3.1,1.7.2,1.3.2,1.9.9,1.9,2.3.2,2.9,0,9.1-.2,12v.2h0Z"/>
  </g>
</svg>